<svg xmlns="http://www.w3.org/2000/svg" width="900" height="900" viewBox="0 0 900 900">
<rect width="900" height="900" fill="#10141c"/>
<circle cx="899" cy="8" r="1.0" fill="#2a3344" opacity="0.26"/>
<circle cx="114" cy="312" r="1.0" fill="#2a3344" opacity="0.29"/>
<circle cx="531" cy="123" r="0.5" fill="#2a3344" opacity="0.26"/>
<circle cx="208" cy="105" r="0.5" fill="#2a3344" opacity="0.17"/>
<circle cx="121" cy="248" r="1.0" fill="#2a3344" opacity="0.18"/>
<circle cx="760" cy="781" r="0.5" fill="#2a3344" opacity="0.31"/>
<circle cx="50" cy="604" r="1.0" fill="#2a3344" opacity="0.29"/>
<circle cx="178" cy="363" r="0.8" fill="#2a3344" opacity="0.17"/>
<circle cx="499" cy="77" r="1.0" fill="#2a3344" opacity="0.19"/>
<circle cx="738" cy="55" r="0.9" fill="#2a3344" opacity="0.17"/>
<circle cx="322" cy="9" r="1.1" fill="#2a3344" opacity="0.25"/>
<circle cx="317" cy="737" r="0.6" fill="#2a3344" opacity="0.31"/>
<circle cx="31" cy="11" r="0.9" fill="#2a3344" opacity="0.21"/>
<circle cx="779" cy="440" r="0.9" fill="#2a3344" opacity="0.34"/>
<circle cx="823" cy="257" r="0.6" fill="#2a3344" opacity="0.21"/>
<circle cx="216" cy="707" r="1.1" fill="#2a3344" opacity="0.29"/>
<circle cx="734" cy="204" r="0.9" fill="#2a3344" opacity="0.31"/>
<circle cx="72" cy="305" r="0.8" fill="#2a3344" opacity="0.22"/>
<circle cx="786" cy="683" r="0.9" fill="#2a3344" opacity="0.25"/>
<circle cx="97" cy="123" r="0.7" fill="#2a3344" opacity="0.18"/>
<circle cx="20" cy="174" r="0.7" fill="#2a3344" opacity="0.28"/>
<circle cx="760" cy="258" r="0.7" fill="#2a3344" opacity="0.27"/>
<circle cx="771" cy="391" r="0.7" fill="#2a3344" opacity="0.28"/>
<circle cx="896" cy="38" r="0.8" fill="#2a3344" opacity="0.24"/>
<circle cx="301" cy="69" r="0.5" fill="#2a3344" opacity="0.24"/>
<circle cx="104" cy="545" r="0.5" fill="#2a3344" opacity="0.27"/>
<circle cx="530" cy="164" r="0.6" fill="#2a3344" opacity="0.32"/>
<circle cx="542" cy="213" r="1.0" fill="#2a3344" opacity="0.17"/>
<circle cx="709" cy="289" r="0.9" fill="#2a3344" opacity="0.26"/>
<circle cx="742" cy="90" r="1.1" fill="#2a3344" opacity="0.17"/>
<circle cx="550" cy="7" r="1.0" fill="#2a3344" opacity="0.30"/>
<circle cx="16" cy="470" r="0.9" fill="#2a3344" opacity="0.16"/>
<circle cx="229" cy="772" r="1.0" fill="#2a3344" opacity="0.25"/>
<circle cx="187" cy="589" r="0.7" fill="#2a3344" opacity="0.19"/>
<circle cx="369" cy="214" r="0.4" fill="#2a3344" opacity="0.19"/>
<circle cx="894" cy="502" r="0.5" fill="#2a3344" opacity="0.21"/>
<circle cx="93" cy="650" r="1.0" fill="#2a3344" opacity="0.22"/>
<circle cx="746" cy="506" r="0.5" fill="#2a3344" opacity="0.34"/>
<circle cx="712" cy="532" r="0.7" fill="#2a3344" opacity="0.34"/>
<circle cx="196" cy="84" r="1.1" fill="#2a3344" opacity="0.25"/>
<circle cx="871" cy="172" r="0.5" fill="#2a3344" opacity="0.22"/>
<circle cx="219" cy="649" r="0.7" fill="#2a3344" opacity="0.31"/>
<circle cx="755" cy="799" r="1.1" fill="#2a3344" opacity="0.30"/>
<circle cx="200" cy="842" r="1.0" fill="#2a3344" opacity="0.22"/>
<circle cx="84" cy="770" r="1.0" fill="#2a3344" opacity="0.29"/>
<circle cx="190" cy="635" r="0.6" fill="#2a3344" opacity="0.30"/>
<circle cx="438" cy="183" r="1.0" fill="#2a3344" opacity="0.30"/>
<circle cx="76" cy="529" r="0.8" fill="#2a3344" opacity="0.24"/>
<circle cx="450.0" cy="450.0" r="3" fill="#ffd97a" opacity="0.9"/>
<circle cx="450.0" cy="450.0" r="60" fill="none" stroke="#3a5aa0" stroke-width="1" opacity="0.4"/>
<circle cx="450.0" cy="450.0" r="120" fill="none" stroke="#2a3344" stroke-width="1" opacity="0.3"/>
<circle cx="450.0" cy="450.0" r="200" fill="none" stroke="#1a2233" stroke-width="1" opacity="0.25"/>
<circle cx="450.0" cy="450.0" r="300" fill="none" stroke="#141a28" stroke-width="1" opacity="0.2"/>
<text x="450.0" y="360.0" font-size="120" fill="#ffd97a" text-anchor="middle" font-family="serif" opacity="0.85">間</text>
<text x="450.0" y="780.0" font-size="16" fill="#8899bb" text-anchor="middle" font-family="sans-serif" letter-spacing="8">留白 · 不是没有,是让有有意义</text>
</svg>